<svg width="127" height="125" viewBox="0 0 127 125" fill="none" xmlns="http://www.w3.org/2000/svg">
<path fill-rule="evenodd" clip-rule="evenodd" d="M80.3738 2.43903C77.1034 -0.813008 71.8009 -0.81301 68.5305 2.43903L14.6431 56.0228L28.263 69.566C28.9171 70.2164 28.9171 71.2709 28.263 71.9213C27.6089 72.5717 26.5484 72.5717 25.8943 71.9213L12.2744 58.3782L2.20756 68.3883C-0.735854 71.3152 -0.735853 76.0605 2.20756 78.9873L13.2976 90.015H31.6128C33.9254 90.015 35.8001 91.8791 35.8001 94.1786V112.391L46.028 122.561C49.2985 125.813 54.601 125.813 57.8714 122.561L67.3461 113.14L53.7262 99.5965C53.0722 98.9461 53.0722 97.8916 53.7262 97.2412C54.3803 96.5908 55.4408 96.5908 56.0949 97.2412L69.7148 110.784L123.602 57.2005C126.873 53.9485 126.873 48.6759 123.602 45.4238L80.3738 2.43903ZM91.7625 37.0433C92.1189 35.2914 90.5637 33.7449 88.8019 34.0993L75.6677 36.7413C75.0758 36.8603 74.4607 36.7635 73.9348 36.4684L62.2645 29.9199C60.699 29.0415 58.7394 30.0343 58.5339 31.81L57.0021 45.0475C56.933 45.6439 56.6503 46.1957 56.2056 46.6019L46.336 55.6149C45.0121 56.8239 45.3561 58.984 46.9909 59.727L59.1785 65.2662C59.7276 65.5158 60.168 65.9538 60.419 66.4998L65.9896 78.6187C66.7369 80.2443 68.9092 80.5864 70.125 79.27L79.1891 69.456C79.5976 69.0138 80.1525 68.7326 80.7524 68.664L94.0648 67.1408C95.8505 66.9365 96.849 64.9878 95.9656 63.4312L89.38 51.8266C89.0833 51.3037 88.9859 50.692 89.1056 50.1035L91.7625 37.0433Z" fill="#313131"/>
</svg>
