<svg width="484" height="125" viewBox="0 0 484 125" fill="none" xmlns="http://www.w3.org/2000/svg">
<path fill-rule="evenodd" clip-rule="evenodd" d="M80.3738 2.43903C77.1034 -0.813008 71.8009 -0.81301 68.5305 2.43903L14.6431 56.0228L28.263 69.566C28.9171 70.2164 28.9171 71.2709 28.263 71.9213C27.6089 72.5717 26.5484 72.5717 25.8943 71.9213L12.2744 58.3782L2.20756 68.3883C-0.735854 71.3152 -0.735853 76.0605 2.20756 78.9873L13.2976 90.015H31.6128C33.9254 90.015 35.8001 91.8791 35.8001 94.1786V112.391L46.028 122.561C49.2985 125.813 54.601 125.813 57.8714 122.561L67.3461 113.14L53.7262 99.5965C53.0722 98.9461 53.0722 97.8916 53.7262 97.2412C54.3803 96.5908 55.4408 96.5908 56.0949 97.2412L69.7148 110.784L123.602 57.2005C126.873 53.9485 126.873 48.6759 123.602 45.4238L80.3738 2.43903ZM91.7625 37.0433C92.1189 35.2914 90.5637 33.7449 88.8019 34.0993L75.6677 36.7413C75.0758 36.8603 74.4607 36.7635 73.9348 36.4684L62.2645 29.9199C60.699 29.0415 58.7394 30.0343 58.5339 31.81L57.0021 45.0475C56.933 45.6439 56.6503 46.1957 56.2056 46.6019L46.336 55.6149C45.0121 56.8239 45.3561 58.984 46.9909 59.727L59.1785 65.2662C59.7276 65.5158 60.168 65.9538 60.419 66.4998L65.9896 78.6187C66.7369 80.2443 68.9092 80.5864 70.125 79.27L79.1891 69.456C79.5976 69.0138 80.1525 68.7326 80.7524 68.664L94.0648 67.1408C95.8505 66.9365 96.849 64.9878 95.9656 63.4312L89.38 51.8266C89.0833 51.3037 88.9859 50.692 89.1056 50.1035L91.7625 37.0433Z" fill="#313131"/>
<path d="M160 116.494V37.5063H175.617V116.494H160Z" fill="#313131"/>
<path d="M242.97 37.5063H259.796L236.118 106.266C234.775 110.181 233.029 112.949 230.879 114.57C228.73 116.19 225.774 117 222.012 117C218.251 117 215.262 116.19 213.045 114.57C210.829 112.949 209.048 110.181 207.705 106.266L183.927 37.5063H201.257L221.206 100.089C221.408 100.831 221.845 101.203 222.516 101.203C223.121 101.203 223.524 100.831 223.725 100.089L242.97 37.5063Z" fill="#313131"/>
<path d="M324.617 101.506V116.494H280.486C276.388 116.494 273.164 115.346 270.813 113.051C268.53 110.755 267.388 107.515 267.388 103.329V50.6709C267.388 46.4852 268.53 43.2447 270.813 40.9494C273.164 38.654 276.388 37.5063 280.486 37.5063H324.114V52.4937H285.927C283.979 52.4937 283.005 53.4726 283.005 55.4304V68.7975H322.098V83.3797H283.005V98.5696C283.005 100.527 283.979 101.506 285.927 101.506H324.617Z" fill="#313131"/>
<path d="M352.804 55.9367V116.494H337.69V54.7215C337.69 49.0506 339.135 44.6962 342.023 41.6582C344.911 38.5527 348.975 37 354.215 37C358.043 37 361.234 38.0127 363.786 40.038C366.339 42.0633 368.723 45.7089 370.94 50.9747L390.789 98.2658C391.327 99.5485 392.065 100.19 393.006 100.19C394.349 100.19 395.021 99.481 395.021 98.0633V37.5063H410.235V99.2785C410.235 104.949 408.825 109.338 406.003 112.443C403.182 115.481 399.186 117 394.013 117C390.185 117 386.927 115.987 384.24 113.962C381.553 111.869 379.101 108.224 376.885 103.025L357.036 55.7342C356.498 54.4515 355.759 53.8101 354.819 53.8101C353.476 53.8101 352.804 54.519 352.804 55.9367Z" fill="#313131"/>
<path d="M417.803 52.4937V37.5063H484V52.4937H458.71V116.494H443.093V52.4937H417.803Z" fill="#313131"/>
</svg>
